<?xml version="1.0" encoding="iso-8859-1"?>
<!-- Generator: Adobe Illustrator 16.0.0, SVG Export Plug-In . SVG Version: 6.00 Build 0)  -->
<!DOCTYPE svg PUBLIC "-//W3C//DTD SVG 1.1//EN" "http://www.w3.org/Graphics/SVG/1.1/DTD/svg11.dtd">
<svg version="1.1" xmlns="http://www.w3.org/2000/svg" xmlns:xlink="http://www.w3.org/1999/xlink" x="0px" y="0px"
	 width="24.672px" height="23.566px" viewBox="0 0 24.672 23.566" style="enable-background:new 0 0 24.672 23.566;"
	 xml:space="preserve">
<g id="account">
	<path style="fill:none;stroke:#000000;stroke-width:2;stroke-miterlimit:10;" d="M23.672,10.863c0,0,0-0.454-0.508-0.532
		c-0.509-0.079-1.522-0.239-2.541-0.388c-0.197-0.03-0.268-0.128-0.336-0.297c-0.228-0.572-0.473-1.139-0.741-1.693
		c-0.085-0.177-0.07-0.284,0.038-0.431c0.596-0.798,1.183-1.603,1.467-1.992c0,0,0.285-0.386-0.054-0.71
		c-0.339-0.323-0.999-0.953-1.339-1.276c0,0-0.339-0.324-0.739-0.053C18.52,3.764,17.686,4.32,16.865,4.89
		c-0.188,0.132-0.323,0.136-0.539,0.038c-0.553-0.246-1.118-0.461-1.691-0.657c-0.225-0.074-0.323-0.169-0.359-0.394
		c-0.148-0.956-0.319-1.909-0.402-2.392c0,0-0.082-0.485-0.556-0.485h-1.882c0,0-0.482,0-0.537,0.288
		c-0.055,0.288-0.165,0.866-0.271,1.444c-0.077,0.414-0.134,0.832-0.232,1.24c-0.026,0.107-0.152,0.229-0.263,0.275
		C9.535,4.498,8.92,4.716,8.326,4.975C8.137,5.057,8.022,5.034,7.871,4.93C7.039,4.353,6.2,3.784,5.797,3.508
		c0,0-0.401-0.274-0.737,0.046c-0.336,0.32-0.996,0.952-1.34,1.28c0,0-0.345,0.331-0.083,0.688C3.9,5.877,4.459,6.66,5.048,7.42
		c0.196,0.254,0.199,0.435,0.044,0.715C4.839,8.6,4.635,9.095,4.467,9.595C4.382,9.845,4.255,9.93,4.005,9.966
		c-0.996,0.144-1.989,0.302-2.497,0.38c0,0-0.508,0.079-0.508,0.528v1.794c0,0,0,0.458,0.371,0.521
		c0.371,0.062,1.111,0.244,1.862,0.299c0.798,0.055,1.319,0.295,1.452,1.119c0.052,0.316,0.253,0.619,0.433,0.904
		c0.142,0.227,0.135,0.387-0.033,0.601c-0.603,0.769-1.183,1.55-1.467,1.927c0,0-0.284,0.375,0.054,0.695
		c0.338,0.318,1.002,0.945,1.348,1.271c0,0,0.346,0.326,0.737,0.065c0.392-0.261,1.24-0.815,2.073-1.39
		c0.209-0.144,0.355-0.121,0.576-0.022c0.54,0.245,1.093,0.464,1.656,0.655c0.225,0.076,0.32,0.178,0.358,0.395
		c0.17,0.953,0.356,1.904,0.446,2.381c0,0,0.091,0.477,0.566,0.477h1.906c0,0,0.476,0,0.559-0.494
		c0.084-0.492,0.244-1.48,0.428-2.464c0.02-0.101,0.164-0.212,0.276-0.259c0.568-0.234,1.156-0.432,1.718-0.68
		c0.223-0.098,0.367-0.109,0.573,0.033c0.824,0.566,1.662,1.112,2.058,1.375c0,0,0.395,0.262,0.738-0.062
		c0.344-0.326,1.008-0.953,1.347-1.272c0,0,0.338-0.321,0.047-0.707c-0.29-0.388-0.888-1.185-1.493-1.977
		c-0.113-0.149-0.119-0.257-0.035-0.431c0.27-0.555,0.52-1.12,0.742-1.691c0.074-0.191,0.17-0.271,0.373-0.303
		c1.003-0.162,2.004-0.338,2.504-0.422c0,0,0.502-0.087,0.502-0.54V10.863z"/>
	<path style="fill:none;stroke:#000000;stroke-width:2;stroke-miterlimit:10;" d="M8.376,11.812
		c-0.013-2.07,1.795-3.793,3.974-3.789c2.171,0.003,3.954,1.693,3.968,3.763c0.015,2.058-1.758,3.76-3.941,3.787
		C10.206,15.604,8.389,13.895,8.376,11.812z"/>
</g>
<g id="Layer_1">
</g>
</svg>
