<?xml version="1.0" encoding="iso-8859-1"?>
<!-- Generator: Adobe Illustrator 16.0.0, SVG Export Plug-In . SVG Version: 6.00 Build 0)  -->
<!DOCTYPE svg PUBLIC "-//W3C//DTD SVG 1.1//EN" "http://www.w3.org/Graphics/SVG/1.1/DTD/svg11.dtd">
<svg version="1.1" xmlns="http://www.w3.org/2000/svg" xmlns:xlink="http://www.w3.org/1999/xlink" x="0px" y="0px"
	 width="390.149px" height="1113.729px" viewBox="0 0 390.149 1113.729" style="enable-background:new 0 0 390.149 1113.729;"
	 xml:space="preserve">
<g id="attach_x5F_mobile">
	<g>
		<defs>
			<path id="SVGID_1_" d="M166.06,634.95h-3.049c-1.698,0-3.078,1.378-3.078,3.077v10.002c0,1.7,1.377,3.078,3.078,3.078h15.772
				c1.697,0,3.077-1.378,3.077-3.078v-10.002c0-1.699-1.377-3.077-3.077-3.077h-2.666l-0.185-1.554
				c-0.126-1.051-1.089-1.908-2.152-1.908h-5.384c-1.063,0-2.026,0.855-2.151,1.908L166.06,634.95z"/>
		</defs>
		<clipPath id="SVGID_2_">
			<use xlink:href="#SVGID_1_"  style="overflow:visible;"/>
		</clipPath>
		<g style="clip-path:url(#SVGID_2_);">
			<defs>
				<rect id="SVGID_3_" x="-1463.411" y="1" width="5099.687" height="3395.943"/>
			</defs>
			<clipPath id="SVGID_4_">
				<use xlink:href="#SVGID_3_"  style="overflow:visible;"/>
			</clipPath>
			<path style="clip-path:url(#SVGID_4_);fill:none;stroke:#000000;stroke-width:2;stroke-miterlimit:10;" d="M166.06,634.95h-3.049
				c-1.698,0-3.078,1.378-3.078,3.077v10.002c0,1.7,1.377,3.078,3.078,3.078h15.772c1.697,0,3.077-1.378,3.077-3.078v-10.002
				c0-1.699-1.377-3.077-3.077-3.077h-2.666l-0.185-1.554c-0.126-1.051-1.089-1.908-2.152-1.908h-5.384
				c-1.063,0-2.026,0.855-2.151,1.908L166.06,634.95z"/>
			<use xlink:href="#SVGID_3_"  style="overflow:visible;fill:none;stroke:#000000;stroke-width:2;stroke-miterlimit:10;"/>
		</g>
		
			<use xlink:href="#SVGID_1_"  style="overflow:visible;fill-rule:evenodd;clip-rule:evenodd;fill:none;stroke:#000000;stroke-width:2;stroke-miterlimit:10;"/>
	</g>
	<circle style="fill:none;stroke:#000000;stroke-width:2;stroke-miterlimit:10;" cx="170.897" cy="642.836" r="4.039"/>
</g>
<g id="Layer_1">
</g>
</svg>
