<?xml version="1.0" encoding="iso-8859-1"?>
<!-- Generator: Adobe Illustrator 16.0.0, SVG Export Plug-In . SVG Version: 6.00 Build 0)  -->
<!DOCTYPE svg PUBLIC "-//W3C//DTD SVG 1.1//EN" "http://www.w3.org/Graphics/SVG/1.1/DTD/svg11.dtd">
<svg version="1.1" xmlns="http://www.w3.org/2000/svg" xmlns:xlink="http://www.w3.org/1999/xlink" x="0px" y="0px"
	 width="21.972px" height="23.288px" viewBox="0 0 21.972 23.288" style="enable-background:new 0 0 21.972 23.288;"
	 xml:space="preserve">
<g id="call">
	<path style="fill:none;stroke:#000000;stroke-width:2;stroke-miterlimit:10;" d="M8.466,14c1.983,2.058,3.212,2.859,4.102,2.769
		c0.889-0.091,1.602-1.213,2.145-1.57c0.542-0.357,1.446-1.353,3.128-0.149c1.682,1.204,2.521,2.135,2.521,2.135
		s1.543,1.293-0.279,2.748s-3.637,3.137-7.845,1.961C8.03,20.714,2.767,14.554,1.422,10.278C0.078,6.002,2.218,3.262,3.991,1.873
		c1.773-1.392,2.223-0.831,2.809-0.292C7.384,2.12,8.397,3.5,8.96,5.037c0.563,1.533-0.537,2.359-0.917,2.69
		C7.661,8.059,6.397,8.806,6.275,9.529C6.152,10.254,6.484,11.942,8.466,14z"/>
</g>
<g id="Layer_1">
</g>
</svg>
