<?xml version="1.0" encoding="iso-8859-1"?>
<!-- Generator: Adobe Illustrator 16.0.0, SVG Export Plug-In . SVG Version: 6.00 Build 0)  -->
<!DOCTYPE svg PUBLIC "-//W3C//DTD SVG 1.1//EN" "http://www.w3.org/Graphics/SVG/1.1/DTD/svg11.dtd">
<svg version="1.1" xmlns="http://www.w3.org/2000/svg" xmlns:xlink="http://www.w3.org/1999/xlink" x="0px" y="0px"
	 width="23.685px" height="21.89px" viewBox="0 0 23.685 21.89" style="enable-background:new 0 0 23.685 21.89;"
	 xml:space="preserve">
<g id="followup">
	<path style="fill:none;stroke:#000000;stroke-width:2;" d="M11.676,1.003c5.987-0.125,10.916,3.8,11.008,8.767
		c0.031,1.727-0.524,3.351-1.517,4.742c0,0-0.985,2.768,0.313,5.248c0.694,1.221-0.812,1.221-1.678,1.049
		c-2.446-0.457-3.976-2.475-3.976-2.475c-1.184,0.396-2.471,0.629-3.818,0.656c-5.987,0.127-10.916-3.799-11.008-8.765
		C0.909,5.257,5.689,1.129,11.676,1.003z"/>
	<path style="fill:none;stroke:#000000;stroke-width:2;stroke-linecap:round;stroke-miterlimit:10;" d="M9.688,6.564
		c0.848-1.783,3.058-1.646,4.285-0.251c1.228,1.397,0.221,4.389-2.172,4.389v1.644"/>
	
		<line style="fill:none;stroke:#000000;stroke-width:2;stroke-linecap:round;stroke-miterlimit:10;" x1="11.85" y1="15.508" x2="11.85" y2="15.74"/>
</g>
<g id="Layer_1">
</g>
</svg>
