<?xml version="1.0" encoding="iso-8859-1"?>
<!-- Generator: Adobe Illustrator 16.0.0, SVG Export Plug-In . SVG Version: 6.00 Build 0)  -->
<!DOCTYPE svg PUBLIC "-//W3C//DTD SVG 1.1//EN" "http://www.w3.org/Graphics/SVG/1.1/DTD/svg11.dtd">
<svg version="1.1" xmlns="http://www.w3.org/2000/svg" xmlns:xlink="http://www.w3.org/1999/xlink" x="0px" y="0px"
	 width="22.723px" height="18.515px" viewBox="0 0 22.723 18.515" style="enable-background:new 0 0 22.723 18.515;"
	 xml:space="preserve">
<g id="forms">
	<ellipse style="fill:none;stroke:#000000;stroke-width:2;stroke-miterlimit:10;" cx="4.94" cy="3.123" rx="2.085" ry="2.123"/>
	<path style="fill:none;stroke:#000000;stroke-width:2;stroke-miterlimit:10;" d="M7.194,12.548
		c1.019-0.726,1.686-1.929,1.686-3.291c0-2.214-1.764-4.011-3.939-4.011C2.764,5.246,1,7.043,1,9.257
		c0,1.362,0.667,2.565,1.685,3.291l0.279,2.594c0.14,1.309,1.325,2.373,2.646,2.373H4.271c1.32,0,2.505-1.063,2.646-2.373
		L7.194,12.548z"/>
	
		<line style="fill:none;stroke:#000000;stroke-width:2;stroke-linecap:round;stroke-miterlimit:10;" x1="12.732" y1="2.27" x2="21.723" y2="2.27"/>
	
		<line style="fill:none;stroke:#000000;stroke-width:2;stroke-linecap:round;stroke-miterlimit:10;" x1="12.732" y1="8.622" x2="21.723" y2="8.622"/>
	
		<line style="fill:none;stroke:#000000;stroke-width:2;stroke-linecap:round;stroke-miterlimit:10;" x1="12.732" y1="15.609" x2="21.723" y2="15.609"/>
</g>
<g id="Layer_1">
</g>
</svg>
