<?xml version="1.0" encoding="iso-8859-1"?>
<!-- Generator: Adobe Illustrator 16.0.0, SVG Export Plug-In . SVG Version: 6.00 Build 0)  -->
<!DOCTYPE svg PUBLIC "-//W3C//DTD SVG 1.1//EN" "http://www.w3.org/Graphics/SVG/1.1/DTD/svg11.dtd">
<svg version="1.1" xmlns="http://www.w3.org/2000/svg" xmlns:xlink="http://www.w3.org/1999/xlink" x="0px" y="0px"
	 width="24.166px" height="20.048px" viewBox="0 0 24.166 20.048" style="enable-background:new 0 0 24.166 20.048;"
	 xml:space="preserve">
<g id="health">
	<path style="fill:none;stroke:#000000;stroke-width:2;stroke-linecap:round;stroke-linejoin:round;stroke-miterlimit:10;" d="
		M20.02,10.625c0.855-1.432,1.431-2.92,1.432-4.334"/>
	<path style="fill:none;stroke:#000000;stroke-width:2;stroke-linecap:round;stroke-linejoin:round;stroke-miterlimit:10;" d="
		M21.451,6.089C21.451,3.279,19.16,1,16.338,1c-2.129,0-4.528,1.317-5.114,4.292C10.514,2.373,8.486,1,6.112,1
		C3.29,1,1,3.279,1,6.089c0,5.532,8.808,12.208,8.808,12.208s1.416,1.072,2.833,0c0,0,0.937-0.709,2.2-1.857"/>
	<polygon style="fill:none;stroke:#000000;stroke-linecap:round;stroke-linejoin:round;stroke-miterlimit:5;" points="
		23.666,11.265 19.251,11.265 19.251,6.851 15.383,6.851 15.383,11.265 10.967,11.265 10.967,15.134 15.383,15.134 15.383,19.548 
		19.251,19.548 19.251,15.134 23.666,15.134 	"/>
</g>
<g id="Layer_1">
</g>
</svg>
