<?xml version="1.0" encoding="iso-8859-1"?>
<!-- Generator: Adobe Illustrator 16.0.0, SVG Export Plug-In . SVG Version: 6.00 Build 0)  -->
<!DOCTYPE svg PUBLIC "-//W3C//DTD SVG 1.1//EN" "http://www.w3.org/Graphics/SVG/1.1/DTD/svg11.dtd">
<svg version="1.1" id="Layer_1" xmlns="http://www.w3.org/2000/svg" xmlns:xlink="http://www.w3.org/1999/xlink" x="0px" y="0px"
	 width="22.188px" height="22.156px" viewBox="0 0 22.188 22.156" style="enable-background:new 0 0 22.188 22.156;"
	 xml:space="preserve">
<g>
	<path d="M20.923,8.573c0.428,0.346,0.327,0.628-0.223,0.628H1.488c-0.55,0-0.65-0.283-0.222-0.628l9.051-7.314
		c0.428-0.346,1.127-0.346,1.555,0L20.923,8.573z"/>
	<path style="fill:none;stroke:#000000;stroke-width:2;stroke-linecap:round;stroke-linejoin:round;stroke-miterlimit:5;" d="
		M20.923,8.573c0.428,0.346,0.327,0.628-0.223,0.628H1.488c-0.55,0-0.65-0.283-0.222-0.628l9.051-7.314
		c0.428-0.346,1.127-0.346,1.555,0L20.923,8.573z"/>
</g>
<g>
	<path d="M4.663,9.202c-0.55,0-0.973,0.449-0.939,0.998l0.609,9.958c0.034,0.549,0.511,0.998,1.061,0.998h2.193
		c0.55,0,0.973-0.449,0.939-0.998l-0.331-5.4c-0.034-0.549,0.389-0.998,0.939-0.998h3.921c0.55,0,0.973,0.449,0.938,0.998l-0.33,5.4
		c-0.034,0.549,0.389,0.998,0.938,0.998h2.192c0.55,0,1.027-0.449,1.062-0.998l0.609-9.958c0.034-0.549-0.389-0.998-0.938-0.998
		H4.663z"/>
	<path style="fill:none;stroke:#000000;stroke-width:2;stroke-linecap:round;stroke-linejoin:round;stroke-miterlimit:5;" d="
		M4.663,9.202c-0.55,0-0.973,0.449-0.939,0.998l0.609,9.958c0.034,0.549,0.511,0.998,1.061,0.998h2.193
		c0.55,0,0.973-0.449,0.939-0.998l-0.331-5.4c-0.034-0.549,0.389-0.998,0.939-0.998h3.921c0.55,0,0.973,0.449,0.938,0.998l-0.33,5.4
		c-0.034,0.549,0.389,0.998,0.938,0.998h2.192c0.55,0,1.027-0.449,1.062-0.998l0.609-9.958c0.034-0.549-0.389-0.998-0.938-0.998
		H4.663z"/>
</g>
</svg>
