<?xml version="1.0" encoding="iso-8859-1"?>
<!-- Generator: Adobe Illustrator 16.0.0, SVG Export Plug-In . SVG Version: 6.00 Build 0)  -->
<!DOCTYPE svg PUBLIC "-//W3C//DTD SVG 1.1//EN" "http://www.w3.org/Graphics/SVG/1.1/DTD/svg11.dtd">
<svg version="1.1" xmlns="http://www.w3.org/2000/svg" xmlns:xlink="http://www.w3.org/1999/xlink" x="0px" y="0px"
	 width="24.405px" height="14.921px" viewBox="0 0 24.405 14.921" style="enable-background:new 0 0 24.405 14.921;"
	 xml:space="preserve">
<g id="payments">
	<g>
		<path style="fill:none;stroke:#000000;stroke-width:2;stroke-linecap:round;stroke-linejoin:round;stroke-miterlimit:5;" d="
			M21.405,1c1.1,0,2,0.9,2,2v8.921c0,1.1-0.9,2-2,2H3c-1.1,0-2-0.9-2-2V3c0-1.1,0.9-2,2-2H21.405z"/>
	</g>
	<path style="fill:none;stroke:#000000;stroke-linecap:round;stroke-linejoin:round;stroke-miterlimit:5;" d="M0.977,4.691
		c0.252,0.072,0.517,0.11,0.792,0.11c1.613,0,2.92-1.33,2.92-2.97c0-0.288-0.041-0.567-0.116-0.831"/>
	<path style="fill:none;stroke:#000000;stroke-linecap:round;stroke-linejoin:round;stroke-miterlimit:5;" d="M4.701,13.83
		c0.07-0.254,0.105-0.518,0.104-0.795c-0.015-1.611-1.358-2.906-2.998-2.891c-0.289,0.002-0.567,0.045-0.83,0.123"/>
	<path style="fill:none;stroke:#000000;stroke-linecap:round;stroke-linejoin:round;stroke-miterlimit:5;" d="M23.405,10.185
		c-0.252-0.072-0.517-0.11-0.792-0.11c-1.613,0-2.92,1.33-2.92,2.971c0,0.288,0.04,0.567,0.115,0.83"/>
	<path style="fill:none;stroke:#000000;stroke-linecap:round;stroke-linejoin:round;stroke-miterlimit:5;" d="M19.682,1.046
		c-0.07,0.253-0.105,0.518-0.104,0.794c0.015,1.612,1.357,2.906,2.998,2.891c0.288-0.002,0.566-0.045,0.829-0.124"/>
	<path style="fill:none;stroke:#000000;stroke-linecap:round;stroke-miterlimit:10;" d="M14.057,4.708
		c-0.976-0.824-3.224-1.249-3.953,0.25c-0.897,2.204,2.08,2.501,2.08,2.501s2.264,0.351,2.223,1.827
		c-0.039,1.477-1.633,1.617-2.134,1.635c-0.501,0.016-2.293-0.41-2.694-1.033"/>
	
		<line style="fill:none;stroke:#000000;stroke-linecap:round;stroke-miterlimit:10;" x1="12.019" y1="2.896" x2="12.019" y2="11.986"/>
</g>
<g id="Layer_1">
</g>
</svg>
