<?xml version="1.0" encoding="iso-8859-1"?>
<!-- Generator: Adobe Illustrator 16.0.0, SVG Export Plug-In . SVG Version: 6.00 Build 0)  -->
<!DOCTYPE svg PUBLIC "-//W3C//DTD SVG 1.1//EN" "http://www.w3.org/Graphics/SVG/1.1/DTD/svg11.dtd">
<svg version="1.1" xmlns="http://www.w3.org/2000/svg" xmlns:xlink="http://www.w3.org/1999/xlink" x="0px" y="0px"
	 width="18.455px" height="23.172px" viewBox="0 0 18.455 23.172" style="enable-background:new 0 0 18.455 23.172;"
	 xml:space="preserve">
<g id="profile">
	<path style="fill:none;stroke:#000000;stroke-width:2;stroke-linecap:round;stroke-linejoin:round;stroke-miterlimit:5;" d="
		M11.837,10.191c5.584,1.289,5.618,7.175,5.618,9.653c0,3.103-16.455,3.103-16.455,0c0-1.231-0.013-3.298,0.681-5.23
		c0,0,1.579-4.469,5.562-4.75"/>
	<path style="fill:none;stroke:#000000;stroke-width:2;stroke-linecap:round;stroke-linejoin:round;stroke-miterlimit:5;" d="
		M13.885,5.657c0,1.767-0.985,3.305-2.438,4.093c-0.659,0.357-1.416,0.563-2.22,0.563c-2.572,0-4.656-2.086-4.656-4.656
		C4.571,3.085,6.655,1,9.227,1C11.801,1,13.885,3.085,13.885,5.657z"/>
	<path style="fill:none;stroke:#000000;stroke-width:2;stroke-linecap:round;stroke-linejoin:round;stroke-miterlimit:5;" d="
		M13.121,16.616c0,0,0.427,2.813,0.438,5.242"/>
	<path style="fill:none;stroke:#000000;stroke-width:2;stroke-linecap:round;stroke-linejoin:round;stroke-miterlimit:5;" d="
		M5.445,16.616c0,0-0.336,2.813-0.346,5.242"/>
</g>
<g id="Layer_1">
</g>
</svg>
