<?xml version="1.0" encoding="iso-8859-1"?>
<!-- Generator: Adobe Illustrator 16.0.0, SVG Export Plug-In . SVG Version: 6.00 Build 0)  -->
<!DOCTYPE svg PUBLIC "-//W3C//DTD SVG 1.1//EN" "http://www.w3.org/Graphics/SVG/1.1/DTD/svg11.dtd">
<svg version="1.1" xmlns="http://www.w3.org/2000/svg" xmlns:xlink="http://www.w3.org/1999/xlink" x="0px" y="0px"
	 width="24.191px" height="23.313px" viewBox="0 0 24.191 23.313" style="enable-background:new 0 0 24.191 23.313;"
	 xml:space="preserve">
<g id="results">
	<polyline style="fill:none;stroke:#000000;stroke-width:2;stroke-linejoin:round;stroke-miterlimit:10;" points="1.29,8.357 
		12.096,16.605 22.9,8.226 	"/>
	<g>
		<path style="fill:none;stroke:#000000;stroke-width:2;stroke-miterlimit:10;" d="M20.443,5.39c0,0,0.618,0.414,1.374,0.92
			s1.374,1.82,1.374,2.92v11.083c0,1.1-0.9,2-2,2H3c-1.1,0-2-0.9-2-2V9.23c0-1.1,0.749-2.414,1.663-2.92
			c0.915-0.506,1.664-0.92,1.664-0.92"/>
	</g>
	<g>
		<path style="fill:none;stroke:#000000;stroke-width:2;stroke-miterlimit:10;" d="M4.058,9.875V3c0-1.1,0.9-2,2-2h12.076
			c1.1,0,2,0.9,2,2v6.875"/>
	</g>
	
		<line style="fill:none;stroke:#000000;stroke-width:2;stroke-linecap:round;stroke-miterlimit:10;" x1="12.096" y1="4.165" x2="12.096" y2="10.729"/>
	
		<line style="fill:none;stroke:#000000;stroke-width:2;stroke-linecap:round;stroke-miterlimit:10;" x1="8.814" y1="7.447" x2="15.377" y2="7.447"/>
</g>
<g id="Layer_1">
</g>
</svg>
