<?xml version="1.0" encoding="iso-8859-1"?>
<!-- Generator: Adobe Illustrator 16.0.0, SVG Export Plug-In . SVG Version: 6.00 Build 0)  -->
<!DOCTYPE svg PUBLIC "-//W3C//DTD SVG 1.1//EN" "http://www.w3.org/Graphics/SVG/1.1/DTD/svg11.dtd">
<svg version="1.1" xmlns="http://www.w3.org/2000/svg" xmlns:xlink="http://www.w3.org/1999/xlink" x="0px" y="0px"
	 width="21.756px" height="21.756px" viewBox="0 0 21.756 21.756" style="enable-background:new 0 0 21.756 21.756;"
	 xml:space="preserve">
<g id="set_x5F_expiration">
	<path style="fill:none;stroke:#000000;stroke-width:2;stroke-linejoin:round;" d="M10.877,1c5.456,0,9.878,4.422,9.878,9.877
		c0,5.456-4.423,9.879-9.878,9.879S1,16.333,1,10.877"/>
	<g>
		<g>
			<path style="fill:none;stroke:#000000;stroke-width:2;stroke-linejoin:round;" d="M1,10.877c0-0.337,0.017-0.67,0.05-0.999"/>
			<path style="fill:none;stroke:#000000;stroke-width:2;stroke-linejoin:round;stroke-dasharray:1.9293,1.9293;" d="M1.429,7.988
				c0.345-1.13,0.887-2.173,1.585-3.091c1.428-1.875,3.512-3.224,5.909-3.704"/>
			<path style="fill:none;stroke:#000000;stroke-width:2;stroke-linejoin:round;" d="M9.878,1.05C10.207,1.017,10.54,1,10.877,1"/>
		</g>
	</g>
	
		<line style="fill:none;stroke:#000000;stroke-width:2;stroke-linecap:round;stroke-linejoin:round;" x1="11.119" y1="12.017" x2="14.916" y2="9.085"/>
	
		<line style="fill:none;stroke:#000000;stroke-width:2;stroke-linecap:round;stroke-linejoin:round;" x1="11.119" y1="12.017" x2="6.839" y2="6.805"/>
</g>
<g id="Layer_1">
</g>
</svg>
