<?xml version="1.0" encoding="iso-8859-1"?>
<!-- Generator: Adobe Illustrator 16.0.0, SVG Export Plug-In . SVG Version: 6.00 Build 0)  -->
<!DOCTYPE svg PUBLIC "-//W3C//DTD SVG 1.1//EN" "http://www.w3.org/Graphics/SVG/1.1/DTD/svg11.dtd">
<svg version="1.1" xmlns="http://www.w3.org/2000/svg" xmlns:xlink="http://www.w3.org/1999/xlink" x="0px" y="0px"
	 width="24.696px" height="19.537px" viewBox="0 0 24.696 19.537" style="enable-background:new 0 0 24.696 19.537;"
	 xml:space="preserve">
<g id="team">
	<path style="fill:none;stroke:#000000;stroke-width:2;stroke-linecap:round;stroke-linejoin:round;stroke-miterlimit:5;" d="
		M19.554,7.74c4.116,0.951,4.143,5.29,4.143,7.118c0,1.364-4.319,1.915-7.803,1.651"/>
	<path style="fill:none;stroke:#000000;stroke-width:2;stroke-linecap:round;stroke-linejoin:round;stroke-miterlimit:5;" d="
		M11.595,8.706c1.473,0.092,2.069-0.702,4.003-0.94"/>
	
		<circle style="fill:none;stroke:#000000;stroke-width:2;stroke-linecap:round;stroke-linejoin:round;stroke-miterlimit:5;" cx="17.547" cy="4.433" r="3.433"/>
	<path style="fill:none;stroke:#000000;stroke-width:2;stroke-linecap:round;stroke-linejoin:round;stroke-miterlimit:5;" d="
		M5.143,9.329c0.47-0.287,1.017-0.521,1.652-0.688"/>
	<path style="fill:none;stroke:#000000;stroke-width:2;stroke-linecap:round;stroke-linejoin:round;stroke-miterlimit:5;" d="
		M11.239,8.613c4.625,1.068,4.654,5.942,4.654,7.997c0,2.569-13.63,2.569-13.63,0c0-1.021-0.011-2.732,0.564-4.334"/>
	<path style="fill:none;stroke:#000000;stroke-width:2;stroke-linecap:round;stroke-linejoin:round;stroke-miterlimit:5;" d="
		M12.935,4.856c0,1.465-0.816,2.738-2.019,3.392C10.37,8.545,9.743,8.714,9.077,8.714c-2.13,0-3.856-1.728-3.856-3.857
		S6.947,1,9.077,1C11.208,1,12.935,2.727,12.935,4.856z"/>
	<path style="fill:none;stroke:#000000;stroke-width:2;stroke-linecap:round;stroke-linejoin:round;stroke-miterlimit:5;" d="
		M12.303,13.935c0,0,0.353,2.331,0.363,4.342"/>
	<path style="fill:none;stroke:#000000;stroke-width:2;stroke-linecap:round;stroke-linejoin:round;stroke-miterlimit:5;" d="
		M20.479,11.934c0,0,0.325,2.148,0.334,4.001"/>
	<path style="fill:none;stroke:#000000;stroke-width:2;stroke-linecap:round;stroke-linejoin:round;stroke-miterlimit:5;" d="
		M5.944,13.935c0,0-0.278,2.331-0.286,4.342"/>
	<path style="fill:none;stroke:#000000;stroke-width:2;stroke-linecap:round;stroke-linejoin:round;stroke-miterlimit:5;" d="
		M4.681,9.697c0.377,0.997-0.62,1.23-1.164,1.776c-0.544,0.547-0.794,1.5-1.772,1.173c-1.119-0.438-0.849-2.158-0.037-2.974
		C2.518,8.859,4.15,8.648,4.681,9.697z"/>
</g>
<g id="Layer_1">
</g>
</svg>
